<svg width="71" height="93" viewBox="0 0 71 93" fill="none" xmlns="http://www.w3.org/2000/svg">
<path d="M26.8744 80.9375C26.0728 80.9375 25.4194 80.2936 25.4194 79.5C25.4194 78.7064 26.0698 78.0625 26.8744 78.0625H43.7533C44.5549 78.0625 45.2052 78.7064 45.2052 79.5C45.2052 80.2936 44.5549 80.9375 43.7533 80.9375H26.8744Z" fill="#FFF55A"/>
<path d="M28.7498 86.6426C27.9482 86.6426 27.2979 85.9987 27.2979 85.2051C27.2979 84.4115 27.9513 83.7676 28.7498 83.7676H41.8778C42.6794 83.7676 43.3297 84.4115 43.3297 85.2051C43.3297 85.9987 42.6794 86.6426 41.8778 86.6426H28.7498Z" fill="#FFF55A"/>
<path d="M33.9467 66.7691C33.9467 67.5599 33.2994 68.2006 32.5009 68.2006C31.7023 68.2006 31.055 67.5596 31.055 66.7691C31.0489 60.7167 30.8735 56.1946 30.0296 52.0078C29.1948 47.8691 27.7004 44.0327 25.0477 39.3009C24.6605 38.6091 24.9116 37.7376 25.6073 37.3542C26.3062 36.9709 27.1864 37.2195 27.5766 37.9083C30.3927 42.9336 31.9868 47.0246 32.8761 51.4479C33.7562 55.8143 33.9407 60.5041 33.9467 66.7691Z" fill="#FFF55A"/>
<path d="M39.5733 66.7691C39.5733 67.5598 38.9259 68.2005 38.1275 68.2005C37.3291 68.2005 36.6816 67.5596 36.6816 66.7691C36.6879 60.5038 36.8722 55.8171 37.7524 51.4478C38.6417 47.0245 40.2359 42.9338 43.052 37.9083C43.4393 37.2165 44.3224 36.9679 45.0183 37.3542C45.7171 37.7375 45.9649 38.612 45.5779 39.3008C42.9252 44.0325 41.4309 47.872 40.596 52.0077C39.7548 56.1945 39.5765 60.7167 39.5733 66.7691Z" fill="#FFF55A"/>
<path d="M25.8707 39.9688C25.1084 39.7291 24.6909 38.9206 24.933 38.1658C25.178 37.4111 25.9916 36.9978 26.754 37.2375C27.7643 37.561 28.6386 37.9952 29.4461 38.3965L29.5247 38.4385C30.786 39.0674 31.8358 39.5585 32.6161 38.9296L34.4008 37.4891C35.0209 36.992 35.9346 37.0848 36.4365 37.6987C36.9387 38.3127 36.8449 39.2171 36.2248 39.7143L34.4401 41.1548C32.2168 42.9456 30.3988 42.0742 28.2089 40.987L28.1424 40.9571C27.4345 40.6036 26.6661 40.2233 25.8707 39.9688Z" fill="#FFF55A"/>
<path d="M36.7661 7.35252C36.7661 8.14614 36.1157 8.79002 35.314 8.79002C34.5124 8.79002 33.8621 8.14614 33.8621 7.35252V1.78223C33.8621 0.98861 34.5124 0.344727 35.314 0.344727C36.1158 0.344727 36.7661 0.98861 36.7661 1.78223V7.35252Z" fill="#FFF55A"/>
<path d="M43.8748 37.2376C44.6371 36.995 45.4538 37.4113 45.6959 38.1659C45.9409 38.9206 45.5205 39.7292 44.7582 39.9689C43.9628 40.2234 43.1945 40.6067 42.4834 40.9602L42.417 40.9902C40.2299 42.0772 38.4091 42.9518 36.1858 41.1578L34.4012 39.7174C33.7811 39.2202 33.6873 38.3158 34.1894 37.7019C34.6916 37.088 35.6051 36.9951 36.2253 37.4922L38.0099 38.9327C38.7904 39.5616 39.837 39.0675 41.1014 38.4416L41.1803 38.3996C41.9903 37.9953 42.8644 37.5611 43.8748 37.2376Z" fill="#FFF55A"/>
<path d="M53.5816 22.6889C58.255 27.3159 61.1498 33.7128 61.1498 40.7745C61.1498 43.5358 60.7022 46.204 59.8794 48.7048C59.0295 51.2893 57.7681 53.7001 56.18 55.8505C53.5152 59.4592 51.3524 61.8281 49.6736 63.6697C46.6517 66.9789 45.3268 68.4286 45.3268 73.2681C45.3268 74.0618 44.6765 74.7056 43.8749 74.7056H43.8384H35.3778H26.878C26.0764 74.7056 25.423 74.0618 25.423 73.2681C25.423 68.4765 24.0709 67.012 21.0702 63.7566L21.0672 63.7537L21.0641 63.7566C19.3672 61.9179 17.1833 59.5489 14.4517 55.8504C12.8637 53.7 11.6023 51.2863 10.7524 48.7018C9.92954 46.2041 9.48193 43.5327 9.48193 40.7746C9.48193 37.3187 10.1807 34.0124 11.4451 30.9936L11.4723 30.9366C12.7851 27.822 14.6968 25.0189 17.0531 22.689C19.4247 20.3412 22.2711 18.4424 25.4412 17.1427V17.1397C28.4902 15.8879 31.8297 15.196 35.3205 15.196C38.8053 15.196 42.1416 15.8879 45.1938 17.1397C48.3576 18.4394 51.21 20.3411 53.5816 22.6889ZM58.2429 40.7745C58.2429 34.5064 55.6746 28.8313 51.5277 24.7223C49.4075 22.623 46.8815 20.934 44.0865 19.7899C41.3944 18.6848 38.43 18.0739 35.3142 18.0739C32.2016 18.0739 29.2373 18.6848 26.5482 19.7899V19.787L26.5421 19.7899C23.7471 20.934 21.2244 22.623 19.1039 24.7223C17.0047 26.8007 15.3078 29.2804 14.1491 32.0176L14.1189 32.0955C13.0058 34.7578 12.3857 37.6927 12.3857 40.7744C12.3857 43.2361 12.7819 45.608 13.5079 47.815C14.2672 50.1119 15.3833 52.2504 16.7869 54.155C19.4096 57.7068 21.545 60.0219 23.2057 61.8246L23.2027 61.8275C26.4332 65.3225 28.0394 67.0714 28.2905 71.8331H35.3717H42.453C42.701 67.0385 44.277 65.3075 47.5226 61.7556C49.144 59.9797 51.2281 57.6947 53.8386 54.1608C55.2421 52.2591 56.3584 50.1208 57.1146 47.8239C57.8467 45.6081 58.2429 43.2392 58.2429 40.7745Z" fill="#FFF55A"/>
<path d="M30.6258 92.3447C29.8242 92.3447 29.1738 91.7008 29.1738 90.9072C29.1738 90.1136 29.8242 89.4697 30.6258 89.4697H40.003C40.8046 89.4697 41.4549 90.1136 41.4549 90.9072C41.4549 91.7008 40.8046 92.3447 40.003 92.3447H30.6258Z" fill="#FFF55A"/>
<path d="M53.1273 12.4586C52.7309 13.1414 51.8446 13.378 51.1519 12.9857C50.4622 12.5935 50.2234 11.716 50.6197 11.0302L53.4328 6.20563C53.8291 5.52283 54.7155 5.28621 55.4081 5.67848C56.1008 6.07076 56.3367 6.94825 55.9405 7.63407L53.1273 12.4586Z" fill="#FFF55A"/>
<path d="M20.0053 11.0331C20.4015 11.7159 20.1657 12.5934 19.4728 12.9858C18.7832 13.3781 17.8969 13.1415 17.5007 12.4587L14.6875 7.634C14.2913 6.95121 14.5302 6.07372 15.2199 5.68144C15.9126 5.28917 16.7989 5.52567 17.1952 6.20847L20.0053 11.0331Z" fill="#FFF55A"/>
<path d="M7.35214 22.5062C8.04179 22.8985 8.28079 23.776 7.88457 24.4618C7.48835 25.1446 6.60194 25.3812 5.91228 24.989L1.03917 22.2038C0.34646 21.8115 0.107579 20.934 0.503797 20.2512C0.900015 19.5654 1.78631 19.3318 2.47902 19.7241L7.35214 22.5062Z" fill="#FFF55A"/>
<path d="M64.7155 24.9889C64.0228 25.3812 63.1365 25.1447 62.7403 24.4618C62.3439 23.776 62.5829 22.8985 63.2726 22.5062L68.1457 19.721C68.8382 19.3287 69.7245 19.5652 70.1209 20.2481C70.5172 20.9309 70.2783 21.8114 69.5885 22.2037L64.7155 24.9889Z" fill="#FFF55A"/>
<path d="M20.2289 46.4555C20.5374 47.1832 20.1926 48.0247 19.4576 48.3302C18.7225 48.6357 17.8726 48.2942 17.564 47.5666C17.0709 46.4108 16.6867 45.1919 16.4326 43.9341C16.1815 42.6913 16.0454 41.4215 16.0454 40.1457C16.0454 39.3521 16.6988 38.7082 17.4973 38.7082C18.2989 38.7082 18.9493 39.3551 18.9493 40.1457C18.9493 41.2688 19.0612 42.3499 19.2699 43.3741C19.4848 44.44 19.8114 45.4761 20.2289 46.4555ZM20.2289 33.8324C19.9204 34.5602 19.0704 34.9016 18.3353 34.5961C17.6002 34.2906 17.2554 33.449 17.564 32.7214C18.0509 31.5803 18.6468 30.4992 19.3274 29.4959L19.3305 29.4929L19.3274 29.49C20.0262 28.4658 20.8187 27.5134 21.6868 26.6539C22.5459 25.8034 23.5078 25.0187 24.5543 24.321V24.318C25.5586 23.6472 26.6566 23.0572 27.8181 22.5721C28.9827 22.0839 30.2108 21.7035 31.4843 21.4519C32.7396 21.2003 34.0282 21.0686 35.3138 21.0686C36.1156 21.0686 36.7658 21.7125 36.7658 22.5061C36.7658 23.2997 36.1155 23.9436 35.3138 23.9436C34.1764 23.9436 33.0815 24.0544 32.0499 24.2581C30.97 24.4707 29.9264 24.7972 28.9404 25.2103C27.9816 25.6117 27.0559 26.1118 26.1757 26.6987H26.1726C25.3166 27.2677 24.4999 27.9385 23.7437 28.6873C22.9965 29.427 22.319 30.2386 21.7351 31.0981L21.7321 31.0951C21.1424 31.9607 20.6372 32.8771 20.2289 33.8324Z" fill="#FFF55A"/>
</svg>
